<?xml version="1.0" standalone="no"?>
<!DOCTYPE svg PUBLIC "-//W3C//DTD SVG 20010904//EN"
 "http://www.w3.org/TR/2001/REC-SVG-20010904/DTD/svg10.dtd">
<svg version="1.0" xmlns="http://www.w3.org/2000/svg"
 width="338.000000pt" height="338.000000pt" viewBox="0 0 338.000000 338.000000"
 preserveAspectRatio="xMidYMid meet">
<metadata>
Created by potrace 1.14, written by Peter Selinger 2001-2017
</metadata>
<g transform="translate(0.000000,338.000000) scale(0.100000,-0.100000)"
fill="#000000" stroke="none">
<path d="M1650 3161 c-76 -23 -122 -68 -152 -145 -13 -34 -22 -41 -74 -60
-144 -53 -283 -166 -380 -311 -77 -116 -107 -190 -143 -353 -72 -321 -164
-527 -360 -812 -36 -52 -166 -234 -289 -404 l-224 -309 47 -41 c156 -134 400
-268 633 -346 355 -118 798 -189 1102 -177 562 23 1071 199 1457 505 l82 65
-20 26 c-10 14 -62 80 -115 146 -145 183 -269 374 -350 540 -91 187 -120 270
-195 560 -33 127 -75 276 -94 332 -114 343 -297 526 -602 603 -34 8 -43 15
-43 32 0 12 -12 41 -26 66 -43 73 -159 111 -254 83z m147 -107 c12 -8 27 -23
33 -34 10 -20 8 -20 -115 -20 l-125 0 15 24 c33 51 134 66 192 30z m176 -173
c204 -53 345 -168 444 -364 46 -92 91 -230 157 -482 70 -268 97 -354 157 -494
60 -139 127 -258 234 -416 44 -66 84 -125 88 -131 4 -7 -71 28 -166 76 -366
188 -663 280 -1002 311 -432 39 -930 -84 -1463 -362 l-152 -80 107 148 c436
601 520 763 618 1193 38 164 51 195 131 316 112 169 270 275 458 305 85 13
302 2 389 -20z m9 -1606 l113 -15 48 -51 c112 -120 162 -309 126 -481 -38
-182 -192 -353 -369 -409 -98 -30 -262 -29 -351 4 -129 46 -216 116 -289 229
-58 89 -82 173 -83 288 -1 145 36 251 127 362 l45 56 88 12 c48 6 95 13 103
15 49 9 345 3 442 -10z m-794 -62 c-2 -5 -18 -37 -36 -72 -126 -241 -82 -546
108 -743 36 -37 61 -68 55 -68 -33 0 -331 67 -445 99 -171 49 -294 97 -440
172 -109 56 -250 150 -250 166 0 10 194 122 334 193 170 86 315 147 491 206
159 53 190 61 183 47z m1198 -32 c137 -44 276 -102 419 -173 195 -98 399 -223
390 -238 -12 -20 -234 -160 -330 -209 -134 -67 -248 -112 -396 -155 -109 -32
-303 -76 -331 -76 -6 0 12 23 40 50 134 132 195 279 196 470 0 122 -16 187
-74 298 -20 39 -36 72 -35 72 1 0 55 -17 121 -39z"/>
<path d="M1635 1051 c-76 -34 -125 -114 -125 -201 0 -126 94 -222 219 -223
202 -1 301 246 154 385 -61 58 -169 75 -248 39z m229 -92 c31 -25 34 -61 6
-89 -27 -27 -56 -25 -86 5 -29 29 -26 58 8 88 26 22 40 22 72 -4z"/>
</g>
</svg>
