<svg xmlns="http://www.w3.org/2000/svg" viewBox="0 0 500 450"><g fill="none" fill-rule="evenodd"><path d="M281.582 34.269l-2.852-.33c0-.1 1.07-10.152-5.19-17.158-4.136-4.633-10.554-6.978-19.067-6.978-9.983 0-17.113 4.075-21.163 12.04a31.711 31.711 0 00-3.308 12.326h-2.852c0-.272.827-27.169 27.309-27.169 9.383 0 16.513 2.674 21.22 7.95 7.13 7.922 5.96 18.875 5.903 19.319z"/><path d="M261.307 25.232h-2.016l-2.663.016-2.287-.006c-10.982-.054-18.491.411-28.324 2.433-14.212 2.922-27.823 8.578-40.607 17.715-19.225 13.74-35.388 34.559-47.704 63.52l-.692 1.642-.386 2.043-.499 2.6-.502 2.565-.505 2.53-.51 2.495-.512 2.462-.258 1.22-.52 2.413-.523 2.382-.528 2.351-.266 1.165-.535 2.306-.541 2.278c-.09.378-.182.754-.273 1.129l-.549 2.235-.554 2.209-.28 1.094-.564 2.17-.57 2.144-.288 1.063-.58 2.108-.588 2.084-.594 2.062c-.4 1.367-.803 2.72-1.212 4.058l-.618 1.998c-.31.994-.625 1.98-.942 2.96l-.638 1.95c-.322.971-.647 1.935-.975 2.893l-.66 1.907a273.531 273.531 0 01-4.902 12.94l-.743 1.8a264.38 264.38 0 01-4.698 10.607l-.826 1.743-.839 1.739-.852 1.734-.43.866-.873 1.729-.886 1.727-.448.862-.907 1.725-.92 1.724-.664 1.224-1.01 1.841-.684 1.231-.693 1.235-.703 1.24-1.072 1.868-.363.625-.733 1.256-.745 1.263-.756 1.27-1.156 1.921-.786 1.292-1.203 1.956-.819 1.318-1.254 1.997-1.286 2.026-1.32 2.054-1.354 2.087-.923 1.41-1.415 2.145-.965 1.45-1.48 2.208-1.52 2.25-2.093 3.067-1.075 1.564-2.21 3.192-1.71 2.453-2.355 3.352-2.442 3.45-2.533 3.555-1.741 2.425-20.466 28.118L15.18 340.78l-8.418 11.619-5.024 6.983 4.51 4.203c32.95 30.71 81.875 52.355 140.42 66.194l2.446.572c.817.19 1.634.376 2.453.561l2.458.55c.82.182 1.64.362 2.462.54l2.465.527c.822.175 1.644.347 2.467.517l2.468.506c1.235.25 2.469.496 3.703.738l2.466.478 2.464.467 2.46.456 2.455.444 2.45.434 2.443.421 2.435.411 2.426.4 2.416.387 2.405.377 2.393.365 2.38.353 2.366.342 2.35.33 2.335.32 2.317.307 2.299.296 2.28.284 2.258.273 2.237.26 2.215.25 1.099.12 2.179.232 1.08.111 2.14.214 1.061.102 2.1.197 1.04.093 2.058.179 1.017.084 2.013.16 1.98.15.979.069 1.932.13 1.897.12 1.863.106 1.826.094 1.789.082.88.037 1.731.064 1.692.052 1.65.04c1.63.034 3.197.046 4.696.046 4.674-.01 9.496-.111 14.45-.312l2.488-.109c2.082-.098 4.187-.213 6.314-.347l2.562-.169 2.583-.187c21.608-1.634 45.305-5.15 70.103-11.209 52.88-12.92 100.943-35.33 140.657-69.322l5.276-4.516-4.475-5.312c-.63-.749-1.257-1.495-1.88-2.239l-1.856-2.224-1.833-2.21-1.809-2.197-1.785-2.183-1.762-2.169-1.74-2.155a785.2 785.2 0 01-.86-1.073l-1.705-2.135-.843-1.063-1.67-2.117c-.277-.351-.553-.702-.827-1.053l-1.637-2.097-1.614-2.085c-.268-.346-.534-.692-.8-1.038l-1.58-2.066-1.56-2.054-1.537-2.043-1.516-2.03-.75-1.012-1.484-2.013-.734-1.003-1.452-1.997-.719-.994-1.42-1.98c-.235-.33-.47-.658-.703-.987l-1.39-1.964-1.37-1.954-1.348-1.944a508.87 508.87 0 01-.667-.968l-1.32-1.928-1.298-1.92-1.28-1.909-1.26-1.9-1.24-1.89-.612-.941-1.212-1.877-.598-.935-1.183-1.864-.584-.929-1.155-1.85-1.136-1.843-1.118-1.834-1.1-1.827-1.08-1.818c-.358-.605-.713-1.209-1.064-1.811l-1.046-1.804c-.346-.6-.689-1.199-1.028-1.796l-1.011-1.79-.993-1.782-.977-1.775c-.161-.296-.322-.59-.481-.886l-.951-1.766-.934-1.76c-9.622-18.253-16.393-34.902-22.453-54.477l-.77-2.515a477.572 477.572 0 01-2.649-9.084l-.747-2.684-1.053-3.867-1.086-4.077-1.33-5.09-3.314-12.901-1.769-6.84-1.758-6.71-1.46-5.471-.825-3.04-.925-3.35-.77-2.729-.753-2.62-.868-2.948-.617-2.053-.62-2.023-.794-2.53-.551-1.727-.295-.912-.6-1.837-.617-1.858-.635-1.89-.657-1.932-.682-1.982-.709-2.042c-12.129-34.783-32.288-57.984-58.31-71.393-12.096-6.232-24.911-10.066-38.255-12.035-8.262-1.22-14.836-1.594-23.41-1.612zm21.365 15.462c11.902 1.756 23.255 5.152 33.886 10.63 22.834 11.766 40.556 32.162 51.504 63.557l.72 2.075.691 2.012.666 1.96.643 1.917.624 1.887.608 1.866.594 1.857.551 1.75.855 2.775.73 2.424.731 2.49.867 3.018.632 2.248.78 2.819 1.087 4 1.153 4.325 1.397 5.318 2.063 7.959 3.658 14.228 1.046 4.007.837 3.161.815 3.023.281 1.033c7.578 27.734 15.508 49.045 28.112 72.957l.48.909.497.931 1.006 1.868 1.023 1.874 1.042 1.88c.175.315.351.629.528.943l1.069 1.891 1.087 1.898 1.107 1.905c.371.636.746 1.274 1.125 1.913l1.143 1.92c.385.641.773 1.284 1.163 1.928l1.183 1.936 1.201 1.944.609.976 1.231 1.956 1.251 1.966.633.986 1.281 1.98.649.992 1.312 1.993 1.332 2.002c.224.335.448.67.674 1.005l1.363 2.017 1.385 2.027 1.406 2.037c.472.68.947 1.363 1.427 2.047l1.448 2.058 1.47 2.069 1.492 2.079 1.514 2.09c.254.35.51.7.766 1.05l1.547 2.108.782 1.058 1.58 2.125.8 1.067 1.615 2.142 1.638 2.156.828 1.082 1.672 2.173 1.696 2.186 1.72 2.2 1.743 2.212.88 1.11 1.78 2.233 1.803 2.245.91 1.128 1.84 2.266 1.865 2.28 1.889 2.294 1.193 1.442-.43.351c-36.768 29.776-80.787 49.764-129.131 61.575-23.185 5.665-45.387 9.033-65.696 10.68l-2.583.201c-2.572.192-5.112.356-7.62.493l-2.495.13-2.473.11c-4.924.206-9.71.309-14.34.32-.956 0-1.942-.005-2.956-.02l-1.543-.026-.787-.018-1.606-.045-1.645-.056-1.685-.069-1.724-.08-.875-.045-1.78-.098-1.814-.11-.92-.059-1.866-.127-1.9-.14c-.319-.023-.64-.048-.961-.073l-1.947-.156-1.977-.169-1-.088-2.02-.185-2.05-.197-2.075-.209-2.101-.22-2.126-.231-2.15-.243-1.083-.126-2.183-.26-2.204-.271-2.224-.283-2.243-.294-2.26-.305-2.278-.316-1.145-.163-2.301-.333-2.315-.345-2.328-.355-2.34-.367-1.175-.188-2.357-.383-2.365-.395-2.375-.405-2.382-.417-2.388-.427-2.393-.439-2.398-.449-1.2-.229-2.402-.466-2.404-.476-2.404-.487-2.404-.499c-.801-.167-1.602-.337-2.402-.509l-2.4-.52-2.396-.53c-.798-.178-1.595-.359-2.391-.54l-2.386-.552-1.19-.28-1.69-.402c-52.3-12.543-96.283-31.498-126.74-57.37l-1.081-.926 11.231-15.465 42.23-57.95 3.179-4.403 2.75-3.851 2.539-3.583 1.845-2.62 2.384-3.408 1.16-1.669 1.138-1.647 1.67-2.429 1.626-2.383 1.583-2.338 2.045-3.053 1.487-2.243 1.449-2.207.945-1.452.93-1.437 1.363-2.13 1.33-2.1 1.298-2.074 1.266-2.049 1.237-2.026.808-1.34.796-1.331 1.173-1.984 1.146-1.968.752-1.305 1.108-1.949.726-1.294.717-1.29 1.06-1.932.696-1.286.485-.903c.473-.885.94-1.77 1.402-2.656l.918-1.772.453-.887.896-1.775.883-1.778.437-.89.862-1.783.85-1.789c.281-.597.56-1.194.837-1.793l.824-1.8.812-1.806.402-.906.793-1.818.782-1.826c.518-1.22 1.027-2.447 1.53-3.681l.747-1.856a290.445 290.445 0 004.942-13.344l.667-1.965c.221-.658.44-1.318.658-1.982l.65-1.999a333.913 333.913 0 001.895-6.11l.616-2.076c.204-.695.406-1.394.608-2.097l.6-2.119.594-2.14.294-1.08.582-2.175c.193-.73.385-1.463.576-2.2l.57-2.225a440.2 440.2 0 00.563-2.25l.557-2.276.552-2.303.274-1.162.543-2.344.27-1.183.535-2.388.53-2.417.526-2.447.522-2.479.517-2.51.257-1.267.511-2.56.508-2.592.504-2.626.116-.614.497-1.163c11.278-26.16 25.696-44.616 42.559-56.668 11.117-7.946 22.915-12.848 35.285-15.392 7.355-1.512 13.276-2.04 21.065-2.133l1.7-.014 1.763-.002 2.28.01 3.668-.017h2.794l1.778.019.868.013 1.697.036c5.582.146 10.462.544 16.223 1.394z" fill="#994E36" fill-rule="nonzero"/><path d="M256.127 0c20.856 0 32.33 12.417 32.556 34.502l.004.672h-14c0-.301-.002-.6-.007-.893l-.02-.872c-.424-13.631-5.923-19.29-18.145-19.407l-.388-.002c-13.198 0-19.925 5.85-21.917 19.302l-.119.86-13.883-1.807C222.935 11.407 235.523 0 256.128 0zM256.127 266.753c74.053 0 152.724 27.801 235.996 83.2l2.525 1.688-7.802 11.624c-82.056-55.078-158.957-82.512-230.719-82.512-71.1 0-150.688 27.26-238.72 81.975l-2.67 1.667-7.434-11.863c91.153-57.12 174.08-85.779 248.824-85.779z" fill="#994E36" fill-rule="nonzero"/></g></svg>