
<svg viewBox="0 0 200 200" xmlns="http://www.w3.org/2000/svg">
    <path d="m112.08 25.65-1.14-.13c0-.04.43-4.05-2.06-6.84-1.64-1.84-4.18-2.78-7.56-2.78-3.97 0-6.8 1.63-8.4 4.8a12.66 12.66 0 0 0-1.32 4.9h-1.13c0-.1.33-10.81 10.84-10.81 3.73 0 6.56 1.06 8.42 3.16 2.83 3.16 2.37 7.52 2.35 7.7Z"/>
    <path d="M104.03 22.05H101.27a49.3 49.3 0 0 0-11.25.97 41.81 41.81 0 0 0-16.12 7.06c-7.63 5.47-14.04 13.76-18.93 25.3l-.28.65-.15.81-.2 1.04-.2 1.02-.2 1-.2 1-.2.98-.1.49-.21.96-.2.95-.22.93-.1.47-.22.92-.21.9-.1.45-.23.9-.22.87-.1.44-.23.86-.23.86-.11.42-.23.84-.24.83-.23.82-.48 1.62-.25.8-.37 1.17-.26.78a118 118 0 0 1-.38 1.15l-.26.76c-.62 1.76-1.27 3.48-1.95 5.15l-.3.72c-.59 1.43-1.2 2.83-1.86 4.22l-.33.7-.33.7-.34.68-.17.35-.35.69-.35.68-.18.35-.36.68-.36.69-.26.49-.4.73-.28.5-.27.48-.28.5-.43.74-.14.25-.3.5-.29.5-.3.5-.46.77-.3.52-.49.78-.32.52-.5.8-.5.8-.53.82-.54.83-.37.57-.56.85-.38.58-.59.88-.6.9-.83 1.21-.43.63-.88 1.27-.68.97-.93 1.34-.97 1.37-1 1.42-.7.97-8.12 11.2-11.51 15.85-3.35 4.63L1 155.13l1.79 1.67c13.08 12.23 32.5 20.85 55.74 26.37l.97.22.97.23.98.22.97.21.98.21.98.2.98.2 1.47.3.98.2.98.18.97.18.98.18.97.17.97.17.97.16.96.16.96.16.95.15.95.14.95.14.94.14.93.13.93.13.92.12.9.12.91.11.9.1.89.11.88.1.43.05.87.1c.14 0 .28.02.43.04l.85.08.42.04.83.08.41.04.82.07.4.03.8.07.79.06.39.02.76.05.76.05.74.04.72.04.71.03.35.02.69.03.67.02.65.01 1.87.02c1.85 0 3.77-.04 5.73-.12l1-.05c.82-.04 1.65-.08 2.5-.14l1.02-.06 1.02-.08c8.58-.65 17.98-2.05 27.83-4.46 20.98-5.15 40.06-14.07 55.83-27.61l2.09-1.8-1.78-2.11-.74-.9-.74-.88-.73-.88-.71-.88-.71-.87-.7-.86-.7-.86-.33-.43-.68-.85-.34-.42-.66-.84-.33-.42-.65-.84-.64-.83-.31-.41-.63-.82-.62-.82-.61-.82-.6-.8-.3-.4-.59-.8-.3-.4-.57-.8-.28-.4-.57-.79-.28-.4-.55-.77-.54-.78-.54-.78-.26-.38-.52-.77-.52-.76-.5-.76-.5-.76-.5-.75-.24-.38-.48-.75-.24-.37-.47-.74-.23-.37-.46-.74-.45-.73-.45-.73-.43-.73-.43-.72-.42-.73-.42-.71-.4-.72-.4-.71-.4-.71-.39-.7c-.06-.13-.13-.24-.2-.36l-.37-.7-.37-.7c-3.82-7.28-6.5-13.9-8.91-21.7l-.3-1c-.36-1.18-.71-2.38-1.06-3.62l-.3-1.07-.41-1.54-.43-1.62-.53-2.03-1.32-5.14-.7-2.72-.7-2.68-.58-2.17-.32-1.22-.37-1.33-.3-1.09-.3-1.04-.35-1.17-.25-.82-.24-.8-.32-1.02-.22-.68-.11-.37-.24-.73-.25-.74-.25-.75-.26-.77-.27-.79-.28-.81c-4.81-13.86-12.82-23.1-23.15-28.44-4.8-2.48-9.88-4-15.18-4.79a59.63 59.63 0 0 0-9.3-.64Zm8.48 6.16c4.72.7 9.23 2.05 13.45 4.23 9.06 4.69 16.1 12.81 20.44 25.31l.29.83.27.8.27.78.25.77.25.75.24.74.24.74.22.7.33 1.1.3.97.28.99.35 1.2.25.9.3 1.12.44 1.6.46 1.71.55 2.12.82 3.17 1.45 5.67.42 1.6.33 1.25.32 1.2.12.42c3 11.04 6.15 19.53 11.15 29.05l.2.37.2.37.4.74.4.75.41.75.21.37.43.76.43.75.44.76.44.76.46.77.46.76.47.78.47.77.25.39.48.78.5.78.25.4.51.78.26.4.52.8.53.79.27.4.54.8.55.8.55.82c.2.27.38.54.57.82l.58.81.58.83.6.83.6.83.3.42.61.84.31.42.63.84.31.43.65.85.65.86.32.43.67.87.67.87.68.87.7.89.35.44.7.89.72.9.36.44.73.9.74.91.75.91.47.58-.17.14c-14.6 11.86-32.06 19.82-51.25 24.52-9.2 2.26-18.02 3.6-26.08 4.26l-1.02.08-3.03.2-.99.04-.98.05a143.65 143.65 0 0 1-6.87.12l-.6-.01-.32-.01-.64-.02-.65-.02-.67-.03-.68-.03-.35-.02-.7-.04-.73-.04-.36-.02-.74-.06-.76-.05-.38-.03-.77-.06-.79-.07-.4-.03-.8-.08-.8-.08-.83-.08-.84-.09-.84-.09-.85-.1-.43-.05-.87-.1-.88-.1-.88-.12-.89-.12-.9-.12-.9-.13-.45-.06-.92-.13-.92-.14-.92-.14-.93-.15-.47-.07-.93-.16-.94-.15-.94-.16-.95-.17-.95-.17-.95-.17-.95-.18-.47-.1-.96-.18-.95-.19-.96-.2-.95-.2a218 218 0 0 1-.95-.2l-.96-.2-.95-.21-.95-.22-.94-.22-.48-.11-.67-.16c-20.76-5-38.21-12.54-50.3-22.85l-.43-.37 4.46-6.16 16.76-23.08 1.26-1.75 1.1-1.53 1-1.43.73-1.04.95-1.36.46-.67.45-.65.66-.97.65-.95.63-.93.8-1.22.6-.89.57-.88.38-.58.37-.57.54-.85.53-.83.51-.83.5-.81.5-.81.32-.54.31-.53.47-.79.45-.78.3-.52.44-.78.29-.51.28-.51.42-.77.28-.52.2-.36.55-1.05.36-.7.18-.36.36-.7.35-.72.17-.35.35-.71.33-.71.34-.72.32-.72.33-.72.15-.36.32-.72.31-.73.6-1.46.3-.74c.7-1.73 1.34-3.5 1.97-5.32l.26-.78.26-.79.26-.8.75-2.43.25-.82.24-.84.24-.84.23-.86.12-.43.23-.86.23-.88.22-.88.23-.9.22-.9.22-.92.1-.47.22-.93.1-.47.22-.95.21-.97.21-.97.2-.99.21-1 .1-.5.2-1.02.2-1.03.2-1.05.06-.24.2-.47c4.47-10.42 10.2-17.77 16.88-22.57a36.29 36.29 0 0 1 14.01-6.13c2.92-.6 5.27-.8 8.36-.85H105.4l.67.02c2.22.06 4.15.22 6.44.56Z"/>
    <path d="M101.97 12c8.28 0 12.83 4.95 12.93 13.74v.27h-5.56v-.36l-.01-.34c-.17-5.43-2.35-7.69-7.2-7.73h-.16c-5.24 0-7.9 2.33-8.7 7.68l-.04.35-5.51-.72C88.8 16.54 93.79 12 101.97 12ZM101.97 118.24c29.4 0 60.62 11.07 93.68 33.13l1 .68-3.1 4.63c-32.57-21.94-63.1-32.87-91.58-32.87-28.22 0-59.8 10.86-94.75 32.65l-1.06.67-2.95-4.73c36.18-22.75 69.1-34.16 98.76-34.16Z"/>
    <path d="M102.46 136.93a13.37 13.37 0 1 0 .01 26.75 13.37 13.37 0 0 0-.01-26.75Zm5.74 13.29a3.78 3.78 0 0 1-3.83-3.77 3.83 3.83 0 1 1 6.54 2.7c-.72.7-1.7 1.1-2.7 1.08v-.01Z"/>
    <path d="m131.02 124.57.25.29a38.73 38.73 0 0 1-13.03 60.93 197.35 197.35 0 0 1-32.95-.47A38.72 38.72 0 0 1 72.7 125.5c3.34-.68 6.67-1.26 10-1.73a33.13 33.13 0 1 0 38.18-.68c3.4.37 6.78.86 10.14 1.48Z"/>
</svg>