<svg xmlns="http://www.w3.org/2000/svg" width="0" height="0" viewBox="0 0 497 177">
  <clipPath id="clipEye">
    <path d="M254.107 3.5C170.061 3.5 87.66 32.327 6.967 89.898L2.87 92.822l4.168 2.823c77.27 52.335 159.082 78.528 245.361 78.528 86.344 0 165.864-27.747 238.453-83.181l3.7-2.825-3.741-2.77C417.09 30.821 338.158 3.5 254.107 3.5zm2.474 7.008c79.94.52 155.147 26.275 225.705 77.325l.576.42-.55.414c-70.22 52.356-146.825 78.506-229.914 78.506l-2.544-.008c-82.218-.5-160.3-25.235-234.318-74.253l-.364-.242.636-.445C93.828 37.715 173.24 10.5 254.108 10.5l2.473.008z"/>
  </clipPath>
</svg>