<svg xmlns="http://www.w3.org/2000/svg" xmlns:xlink="http://www.w3.org/1999/xlink" viewBox="0 0 43 39"><defs><path d="M0 30.02C7.08 25.34 14.07 23 20.96 23c6.9 0 13.25 2.34 19.04 7.02C35.35 34.67 29 37 20.96 37S5.93 34.67 0 30.02z" id="a"/></defs><g transform="translate(1 1)" fill="none" fill-rule="evenodd"><g fill-rule="nonzero"><path d="M23 2.85l-.24-.03s.09-.84-.43-1.42C22 1 21.47.82 20.77.82c-.82 0-1.41.33-1.74 1-.16.32-.25.66-.27 1.02h-.24c0-.02.07-2.26 2.24-2.26.78 0 1.36.22 1.75.66.58.66.49 1.57.48 1.6z"/><path d="M21.33 2.1H20.75c-.9 0-1.51.03-2.32.2a8.62 8.62 0 00-3.34 1.47 12.07 12.07 0 00-3.92 5.29l-.06.13-.03.17-.04.22-.04.21-.04.21-.04.2-.04.21-.03.1-.04.2-.04.2-.04.2-.03.1-.04.19-.05.19-.02.1-.04.18-.05.18-.02.1-.05.17-.04.18-.03.09-.05.17-.04.18-.05.17a28 28 0 01-.1.34l-.05.16-.08.25-.05.16-.08.24-.06.16c-.12.37-.26.73-.4 1.08l-.06.15c-.12.3-.25.59-.39.88l-.06.14-.07.15-.07.14-.04.07-.07.15-.07.14-.04.07-.08.15-.07.14-.06.1-.08.15-.05.1-.06.1-.06.11-.09.16-.03.05-.06.1-.06.1-.06.11-.1.16-.06.11-.1.16-.07.11-.1.17-.1.17-.11.17-.11.17-.08.12-.12.18-.08.12-.12.18-.12.19-.17.25-.1.13-.17.27-.14.2-.2.28-.2.29-.2.3-.15.2-1.68 2.33-2.39 3.31-.69.97-.41.58.37.35c2.7 2.55 6.73 4.35 11.54 5.5l.2.05.2.05.2.04.2.05.2.04.21.05.2.04.3.06.21.04.2.04.2.04.2.03.2.04.2.03.2.04.2.03.2.03.2.03.2.04.2.02.19.03.2.03.19.03.19.02.18.03.2.02.18.02.18.03.18.02h.1l.17.03h.1l.17.02.08.01.18.02h.08l.17.02h.08l.17.02.16.01h.08l.16.02h.16l.15.02h.15l.15.01h.07l.14.01h.28a18.42 18.42 0 001.57-.01l.2-.01.52-.03.21-.02.22-.01c1.77-.14 3.72-.43 5.76-.93a27.5 27.5 0 0011.55-5.77l.44-.37-.37-.44-.16-.19-.15-.19-.15-.18-.15-.18-.14-.18-.15-.18-.14-.18-.07-.1-.14-.17-.07-.09-.14-.17-.07-.1-.13-.17-.13-.17a56.7 56.7 0 01-.07-.09l-.13-.17-.13-.17-.12-.17-.13-.17a50.9 50.9 0 01-.06-.08l-.12-.17L38 26l-.12-.17-.06-.08-.12-.16-.06-.09-.1-.16-.12-.16-.11-.16-.06-.08-.1-.17-.11-.15-.1-.16-.11-.16-.1-.16-.05-.08-.1-.15a36.5 36.5 0 01-.05-.08l-.1-.16-.05-.07-.1-.16-.09-.15-.09-.15-.09-.15-.09-.16-.08-.15-.09-.15-.08-.15-.09-.14-.08-.15-.08-.15-.04-.07-.08-.15-.07-.15c-.8-1.51-1.35-2.9-1.85-4.53l-.06-.2-.22-.76-.06-.22-.09-.33-.09-.33-.1-.43-.28-1.07-.14-.57-.15-.56-.12-.45-.07-.25-.07-.28-.07-.23-.06-.22-.07-.24-.05-.17-.05-.17-.07-.21-.04-.15-.02-.07-.05-.15-.05-.16-.06-.16-.05-.16-.06-.16-.06-.17c-1-2.9-2.65-4.82-4.79-5.94a9.9 9.9 0 00-3.14-1c-.68-.1-1.22-.13-1.92-.13zm1.75 1.28c.98.15 1.91.43 2.79.89 1.87.98 3.33 2.67 4.23 5.28l.06.17.05.17.06.16.05.16.05.16.05.16.05.15.05.15.07.23.06.2.06.2.07.26.05.18.07.24.08.33.1.36.11.44.17.66.3 1.19.09.33.07.26.07.25.02.09c.62 2.3 1.27 4.08 2.3 6.07l.05.07.04.08.08.15.09.16.08.16.04.07.1.16.08.16.1.16.09.16.09.16.1.16.1.16.09.16.05.08.1.16.1.17.06.08.1.16.05.09.11.16.11.17.06.08.11.17.11.17.12.17.12.17.12.17.12.17.12.17.12.18.07.08.12.18.07.09.13.17.06.1.14.17.13.18.07.1.14.17.13.18.15.19.14.18.07.1.15.18.15.18.07.1.15.19.16.19.15.19.1.12-.04.03a26.63 26.63 0 01-10.6 5.12c-1.91.47-3.74.75-5.4.88l-.22.02-.62.04-.2.01-.21.01a29.48 29.48 0 01-1.42.03h-.19l-.14-.01h-.13l-.14-.01h-.14l-.07-.01-.15-.01h-.15l-.07-.01-.16-.01-.15-.02h-.08l-.16-.02h-.16l-.09-.02-.16-.01-.17-.02-.17-.02-.17-.01-.18-.02-.18-.02-.08-.01-.18-.03-.19-.02-.18-.02-.18-.03-.19-.02-.18-.03-.1-.01-.19-.03-.19-.03-.19-.03-.2-.03-.09-.01-.2-.03-.19-.04-.2-.03-.19-.04-.2-.03-.19-.04-.2-.04-.1-.01-.2-.04-.2-.04-.19-.04-.2-.04-.2-.05-.19-.04-.2-.04-.2-.05-.19-.05-.1-.02-.14-.03c-4.3-1.04-7.9-2.62-10.41-4.77l-.09-.08.92-1.28 3.47-4.82.27-.37.22-.32.21-.3.15-.22.2-.28.1-.14.09-.13.13-.2.14-.2.13-.2.17-.25.12-.19.12-.18.07-.12.08-.12.11-.18.11-.17.1-.18.11-.17.1-.17.07-.1.07-.12.1-.16.09-.17.06-.1.09-.17.06-.1.06-.11.08-.16.06-.1.04-.08.12-.23.07-.14.04-.08.07-.14.08-.15c0-.03.02-.05.03-.08l.07-.14.07-.15.07-.15.07-.15.07-.15c0-.03.02-.05.03-.08l.06-.15.07-.15.12-.3.07-.16.4-1.11.06-.16.05-.17.05-.16.16-.51.05-.17.05-.18.05-.18.05-.17.02-.1.05-.17.05-.19.04-.18.05-.19.05-.19.04-.19.02-.1.05-.2.02-.09.04-.2.05-.2.04-.2.04-.2.05-.22.02-.1.04-.22.04-.21.04-.22.01-.05.04-.1a10.87 10.87 0 013.5-4.7 7.48 7.48 0 012.9-1.29c.6-.12 1.09-.17 1.73-.18H21.75c.46.02.86.05 1.33.12z" fill="#994E36"/><path d="M20.9 0c1.72 0 2.66 1.03 2.68 2.87v.05h-1.15v-.14c-.04-1.14-.5-1.6-1.5-1.62h-.03c-1.08 0-1.64.49-1.8 1.6v.08l-1.15-.15C18.17.95 19.21 0 20.9 0zM20.9 22.18c6.09 0 12.55 2.31 19.4 6.92l.2.14-.64.96c-6.74-4.58-13.06-6.86-18.96-6.86-5.84 0-12.38 2.27-19.61 6.82l-.22.14-.61-.99c7.49-4.75 14.3-7.13 20.44-7.13z" fill="#994E36"/></g><mask id="b" fill="#fff"><use xlink:href="#a"/></mask><g mask="url(#b)" fill="#994E36" fill-rule="nonzero"><path d="M21.04 26.2a2.76 2.76 0 100 5.52 2.76 2.76 0 000-5.52zm1.19 2.74a.78.78 0 01-.8-.78.79.79 0 111.36.56.77.77 0 01-.56.22z"/><path d="M21 21a8 8 0 110 16 8 8 0 010-16zm0 1.15a6.85 6.85 0 100 13.7 6.85 6.85 0 000-13.7z"/></g></g></svg>