<svg viewBox="0 0 500 450" xmlns="http://www.w3.org/2000/svg">
    <path d="M251.374 295.836a33.328 33.328 0 1033.343 33.227 33.227 33.227 0 00-33.343-33.227zm14.317 33.112a9.42 9.42 0 01-9.564-9.39 9.535 9.535 0 0119.07 0 9.348 9.348 0 01-9.506 9.404v-.014z" class="logo__pupil" fill="#994E36" fill-rule="nonzero"/>
    
    <path d="M490.747 359.463s-127.283-75.425-236.142-75.397c-108.859.029-243.585 74.597-243.585 74.597s84.318-80.524 243.585-92.521c124.645-9.37 236.142 93.321 236.142 93.321z" fill="#994E36" fill-rule="nonzero"/>
    
    <path d="M11.02 359.463s77.598-98.18 102.585-138.033c21.82-34.754 29.736-74.492 35.655-100.265 6.375-27.473 30.82-81.39 102.128-86.43 0 0-76.257-10.894-112.055 71.48 0 0-17.713 76.406-35.654 108.162.028 0-74.703 127.595-92.66 145.086z" fill="#994E36" fill-rule="nonzero"/>
    
    <path d="M9 359.477s207.664 149.836 447.409 24.534c0 0-211.204 146.19-447.409-24.548v.014z" fill="#994E36" fill-rule="nonzero"/>
    
    <path d="M172.536 292.806S140.43 428.114 269.568 421.72c0 0-50.214 13.73-87.371-24.754-17.98-18.8-37.315-46.375-22.503-101.31l12.842-2.849z" fill="#994E36" fill-rule="nonzero"/>
    
    <path d="M259.296 29.732l-2.66.016-2.312-.006c-.652-.003-1.292-.004-1.92-.004l-1.85.009c-8.792.074-15.447.632-23.832 2.356-13.752 2.828-26.91 8.295-39.277 17.134-18.683 13.354-34.444 33.654-46.515 62.036l-.545 1.291-.57 3.003-.505 2.602-.507 2.567-.512 2.533-.515 2.498-.52 2.466c-.086.409-.173.816-.26 1.221l-.527 2.418-.264 1.197-.533 2.372-.538 2.341-.27 1.16-.547 2.297-.275 1.139-.554 2.256-.56 2.228c-.188.739-.377 1.473-.566 2.203l-.573 2.177-.58 2.152-.586 2.128c-.197.705-.395 1.406-.594 2.104l-.6 2.082c-.202.69-.405 1.377-.609 2.06l-.616 2.039c-.31 1.014-.624 2.02-.94 3.02l-.637 1.989a281.749 281.749 0 01-8.008 21.722l-.762 1.809-.774 1.8-.786 1.791-.798 1.784a271.43 271.43 0 01-3.318 7.069l-.862 1.755-.876 1.75c-.294.584-.59 1.167-.89 1.75l-.903 1.746-.457.872-.925 1.745-1.145 2.124-1.032 1.88-.699 1.258-.708 1.261-.718 1.266-.728 1.27-1.112 1.917-1.137 1.931-1.163 1.95-1.191 1.967-.81 1.324-.824 1.335-.837 1.345-1.282 2.04-1.316 2.068-1.35 2.1-1.386 2.13-1.423 2.168-1.462 2.204-1.501 2.243-1.024 1.52-1.043 1.537-1.062 1.558-2.183 3.178-2.264 3.266-1.164 1.667-1.786 2.546-1.836 2.602-2.528 3.56-2.601 3.636-4.357 6.016-43.312 59.434-9.404 12.963-2.702 3.747-1.8 2.502 2.256 2.102c32.426 30.22 80.832 51.636 138.839 65.348l2.43.568c.406.094.812.188 1.218.28l2.44.552c.813.183 1.628.363 2.443.541l2.448.53c.408.088.817.175 1.225.261l2.451.514 2.453.503 2.452.491 2.451.48 2.45.47 2.445.458 1.222.225 2.439.442 2.434.43 2.426.42 2.42.407 2.409.397 2.4.386 2.389.374 2.377.362 2.363.352 2.35.34 1.17.165 2.326.323 2.31.311 1.147.151 2.283.294 2.263.283 2.242.27 2.221.26 1.102.125 2.187.242c.363.04.724.078 1.085.116l2.15.225 2.125.212 2.097.2 2.07.19 2.042.177 2.01.166 1.981.153 1.948.142.962.066 1.899.124.936.057 1.846.106 1.81.094 1.772.082.872.036 1.715.064.843.027 1.654.046.812.018 1.592.028c1.047.014 2.066.018 3.054.018 2.349-.005 4.734-.033 7.156-.086l2.434-.06c1.63-.047 3.276-.103 4.936-.172l2.503-.11 1.26-.063 2.536-.137c23.345-1.337 49.421-4.903 76.853-11.605 52.381-12.798 99.953-34.978 139.21-68.58l2.64-2.26-3.186-3.782-1.878-2.243-1.854-2.229-1.83-2.215-1.807-2.201-1.784-2.188-1.76-2.174-1.736-2.16-1.714-2.148-1.691-2.135-1.669-2.122-.825-1.056-1.635-2.103-.81-1.047-1.6-2.084-.793-1.038-1.569-2.067-1.546-2.055-1.525-2.043-.755-1.018-1.493-2.026c-.494-.673-.984-1.345-1.472-2.015l-1.45-2.004-.718-.998-1.42-1.988-.701-.99-1.389-1.972c-.459-.656-.915-1.31-1.368-1.962l-1.347-1.952-1.328-1.942-.656-.967-1.298-1.927-1.278-1.918-.632-.956-1.249-1.904c-.413-.633-.823-1.264-1.23-1.895l-1.21-1.886-1.191-1.877-.589-.936-1.163-1.864c-.385-.62-.766-1.24-1.144-1.857l-1.127-1.848-1.107-1.84-1.09-1.834-.538-.913-1.063-1.822-1.045-1.814-.516-.905-1.02-1.804-.502-.899-.993-1.794-.976-1.787-.481-.89-.95-1.779c-.158-.295-.314-.59-.47-.886-11.175-21.201-18.548-40.268-25.384-64.085l-.757-2.666c-.252-.896-.503-1.798-.754-2.708l-.931-3.412-.983-3.678-1.199-4.573-1.353-5.242-3.148-12.25-1.91-7.345-1.572-5.943-1.306-4.848-.828-3.01-1.194-4.243-.775-2.683-.639-2.168-.765-2.54-.456-1.486-.768-2.457-.468-1.47-.622-1.925-.624-1.9-.971-2.904-.675-1.988-.702-2.04-.73-2.106c-11.834-33.936-31.384-56.436-56.61-69.434-11.73-6.043-24.179-9.768-37.162-11.684-8.069-1.19-14.5-1.556-22.927-1.574h-1.982zm23.887 8.5c12.263 1.809 23.98 5.315 34.978 10.981 23.631 12.176 41.963 33.274 53.206 65.516l.751 2.165.72 2.098.693 2.04.669 1.998.326.986.64 1.953.546 1.697.91 2.883.858 2.797.733 2.448.737 2.516.622 2.166.89 3.161 1.193 4.34 1.268 4.718 2.173 8.264 2.683 10.386 1.903 7.418 1.12 4.33 1.015 3.873 1.09 4.084.56 2.06c7.516 27.505 15.36 48.585 27.832 72.248l.477.902.492.923.997 1.851 1.015 1.858 1.033 1.865 1.05 1.871 1.07 1.879.542.941 1.097 1.89.555.947 1.126 1.901 1.144 1.909 1.163 1.916 1.183 1.925c.596.964 1.2 1.932 1.81 2.903l1.232 1.946.624.976 1.261 1.96.639.983 1.292 1.973 1.312 1.983.664.995 1.343 1.997c.452.668.906 1.337 1.365 2.007l1.385 2.018c.465.674.934 1.35 1.406 2.027l1.428 2.038 1.449 2.049 1.47 2.06 1.494 2.07 1.514 2.082 1.537 2.094 1.56 2.105.788 1.057 1.593 2.122c.535.71 1.073 1.422 1.616 2.135l1.639 2.148 1.662 2.16.84 1.084 1.696 2.179.858 1.094 1.732 2.199 1.756 2.211 1.78 2.225 1.805 2.24 1.829 2.252c.306.376.614.754.923 1.131l1.865 2.274 1.89 2.288 2.523 3.03-.825.687c-37.673 31.193-83.003 51.997-132.848 64.175-25.867 6.32-50.517 9.806-72.725 11.241l-2.552.157c-2.54.148-5.048.268-7.52.363l-2.46.087-2.438.07c-2.829.071-5.608.109-8.335.115-.967 0-1.963-.004-2.989-.018l-1.559-.027-1.601-.04-1.642-.05-1.682-.063-1.72-.075-1.76-.087-.893-.048-1.813-.104-1.848-.117-1.883-.128-1.915-.14-1.948-.151-1.978-.164-2.009-.175-2.037-.186a477.04 477.04 0 01-1.03-.098l-2.078-.204-2.105-.216-2.13-.227-2.154-.238-2.177-.25-2.2-.262-2.22-.273-2.24-.285-2.26-.296-3.421-.465-2.302-.324-2.317-.336-2.331-.346-2.345-.358-2.356-.37-2.368-.38-2.378-.392-2.386-.402-2.394-.414-2.402-.425-2.407-.436a600.36 600.36 0 01-1.205-.222l-2.414-.452-2.417-.463-2.419-.475-2.42-.485-2.42-.496a559.11 559.11 0 01-2.42-.507l-2.417-.517-2.414-.529-2.41-.54-1.203-.273-2.401-.555-1.199-.282-1.705-.406C92.91 407.09 47.31 387.108 16.273 359.512l-.593-.531 4.413-6.096 8.519-11.724 39.922-54.773 5.314-7.336 2.415-3.378 2.552-3.593 2.46-3.49 1.786-2.552 1.74-2.5 1.691-2.449 1.647-2.4 2.127-3.13 1.547-2.298 1.505-2.256.981-1.483.965-1.466.947-1.45.931-1.436.916-1.42 1.344-2.107.877-1.388 1.289-2.059 1.258-2.034.821-1.344.81-1.334.796-1.326.784-1.317 1.155-1.963.756-1.3 1.114-1.94 1.091-1.929 1.07-1.92.703-1.278.694-1.275.823-1.53.465-.874.921-1.751.907-1.752.893-1.753.88-1.757.434-.879.86-1.761c.284-.588.566-1.177.846-1.766l.834-1.771a276.025 276.025 0 001.63-3.56l.797-1.79c.395-.896.786-1.796 1.173-2.7l.767-1.81a277.3 277.3 0 003.317-8.276l.708-1.872a303.613 303.613 0 005.633-16.517l.621-2.026.308-1.02.61-2.057c.302-1.033.602-2.074.9-3.124l.59-2.11c.196-.707.39-1.418.584-2.133l.578-2.156.57-2.18.564-2.205.558-2.23.277-1.125.55-2.27.543-2.297.538-2.325.534-2.353.264-1.188.526-2.398.522-2.427.259-1.226.515-2.475.511-2.506.507-2.54.504-2.573.5-2.606.184-.973-.142.336c11.634-27.716 26.732-47.276 44.533-59.999 11.533-8.243 23.784-13.334 36.616-15.972 8.144-1.675 14.575-2.18 23.425-2.22l1.804-.001 2.29.01 3.655-.017h1.915l1.844.01c7.247.065 13.027.443 20.118 1.49z" fill="#994E36" fill-rule="nonzero"/>
    
    <path d="M256.127 4.5c18.863 0 28.859 10.81 29.057 31.057l.003.617h-7c0-16.922-7.033-24.674-22.06-24.674-15.105 0-23.288 7.278-25.443 22.74l-.064.47-6.941-.903C226.18 14.58 237.305 4.5 256.127 4.5z" fill="#994E36" fill-rule="nonzero"/>
    
    <path d="M167.8 285.792l-.148.006c-1.206.053-1.62.294-2.094 1.23l-.137.287-.146.328-.243.573c-.074.177-.15.377-.228.605l-.164.491-.159.513-.17.58-.183.645-.19.703-.2.757-.305 1.2-.31 1.273-.314 1.334-.158.688-.314 1.411-.312 1.452-.308 1.484c-.101.498-.202 1-.3 1.506l-.162.831c-1.803 9.404-2.824 18.124-2.644 24.752l.016.502v-.057c0 53.106 43.052 96.157 96.158 96.157s96.157-43.051 96.157-96.157v-.106c-.542-17.853-4.353-33.26-11.173-46.066l-.623-1.17-1.242-.463c-38.9-14.524-120.23-12.905-169.196 4.386l-.908.325zm165.344 1.022l1.06.369.074.145c5.752 11.338 9.047 24.936 9.634 40.732l.03.826c0 49.24-39.917 89.157-89.157 89.157-48.748 0-88.358-39.123-89.145-87.683l-.015-1.61c-.09-2.356.001-5.082.252-8.075l.117-1.3.066-.66.145-1.346c.258-2.265.592-4.65.993-7.114l.249-1.489.264-1.505.138-.76.288-1.529a207.441 207.441 0 01.439-2.22l.296-1.43.15-.703.301-1.378c.101-.452.202-.897.303-1.333l.3-1.28.297-1.216.29-1.145.271-1.02.176-.635.166-.575 1.382-.48c46.65-15.951 122.846-17.636 160.636-4.743zm-163.513 5.759l1.306-.469c-.296.476-.62.619-1.36.662l-.371.013-.149.003.574-.21z" fill="#994E36" fill-rule="nonzero"/>
    
    <path d="M256.127 271.253c73.3 0 151.324 27.573 234.062 82.618l2.509 1.676-3.902 5.812c-82.594-55.439-160.147-83.106-232.669-83.106-71.824 0-152.02 27.468-240.563 82.5l-2.686 1.676-3.717-5.932c90.639-56.796 172.953-85.244 246.966-85.244z" fill="#994E36" fill-rule="nonzero"/>
</svg>