<?xml version="1.0" encoding="UTF-8"?>
<svg width="203px" height="204px" viewBox="0 0 203 204" version="1.1" xmlns="http://www.w3.org/2000/svg" xmlns:xlink="http://www.w3.org/1999/xlink">
    <title>pupil</title>
    <g id="pupil" stroke="none" stroke-width="1" fill="none" fill-rule="evenodd">
        <path d="M102,5.5 C48.1522369,5.5 4.5,49.1522369 4.5,103 C4.5,156.847763 48.1522369,200.5 102,200.5 C155.847763,200.5 199.5,156.847763 199.5,103 C199.5,49.1522369 155.847763,5.5 102,5.5 Z M102,12.5 C151.98177,12.5 192.5,53.0182301 192.5,103 C192.5,152.98177 151.98177,193.5 102,193.5 C52.0182301,193.5 11.5,152.98177 11.5,103 C11.5,53.0182301 52.0182301,12.5 102,12.5 Z" id="Oval" fill="#994E36" fill-rule="nonzero"></path>
        <path d="M102.485743,70.0001997 C88.928577,70.0063409 76.7115507,78.1829531 71.5370663,90.7137347 C66.3625818,103.244516 69.2509132,117.658723 78.853907,127.228399 C88.4569007,136.798076 102.881096,139.636331 115.393876,134.418385 C127.906656,129.200439 136.040825,116.955136 135.999846,103.398074 C135.999846,94.5202971 132.465118,86.0078164 126.176672,79.7411879 C119.888226,73.4745593 111.363496,69.9695228 102.485743,70.0001997 Z M116.875831,103.281909 C114.344845,103.320743 111.903708,102.344437 110.097525,100.571 C108.291342,98.7975632 107.270545,96.3747002 107.263078,93.8434359 C107.263078,88.5505157 111.553852,84.259756 116.846789,84.259756 C122.139727,84.259756 126.430689,88.5505157 126.430689,93.8434359 C126.446507,96.3731006 125.441679,98.8023267 123.643354,100.581514 C121.845029,102.360702 119.405188,103.339489 116.875831,103.296429 L116.875831,103.281909 Z" fill="#994E36" fill-rule="nonzero"></path>
    </g>
</svg>