<svg viewBox="0 0 200 200" xmlns="http://www.w3.org/2000/svg">
    <path d="M34.17 43.79c-1.78 0-3.21.71-3.92 1.78-.72 1.08-.72 2.86 0 4.3L49.53 83.1l-30 53.25c-.7 1.43-.7 3.22 0 4.3a4.4 4.4 0 0 0 3.58 1.78h28.2c4.29 0 6.43-2.86 7.86-5.36 0 0 29.27-52.18 30.7-53.97L70.23 48.79c-1.42-2.5-3.57-5.36-7.85-5.36h-28.2v.36ZM150.3 1c-4.11 0-5.83 2.52-7.2 5.4 0 0-58.6 109.08-60.32 112.68l38.39 74.52c1.37 2.52 3.42 5.4 7.54 5.4h27.07c1.72 0 2.74-.72 3.77-1.8.69-1.08.69-2.88 0-4.32l-38.38-73.8v-.36l60.32-111.6c.68-1.44.68-3.24 0-4.32-.69-1.08-2.06-1.8-3.77-1.8H150.3Z"/>
</svg>